<?xml version="1.0" encoding="UTF-8"?>
<svg width="32px" height="32px" viewBox="0 0 32 32" version="1.1" xmlns="http://www.w3.org/2000/svg" xmlns:xlink="http://www.w3.org/1999/xlink">
    <title>IG@1x</title>
    <g id="1.-Design" stroke="none" stroke-width="1" fill="none" fill-rule="evenodd">
        <g id="HP2" transform="translate(-1544.000000, -36.000000)">
            <g id="HEADER" transform="translate(0.000000, -36.000000)">
                <g id="Social" transform="translate(1504.000000, 72.000000)">
                    <g id="IG" transform="translate(40.000000, 0.000000)">
                        <rect id="Rectangle" stroke="#E3000F" stroke-width="2" x="1" y="1" width="30" height="30"></rect>
                        <g id="Group" transform="translate(8.000000, 8.000000)" fill="#E3000F" fill-rule="nonzero">
                            <g id="instagram-3">
                                <path d="M15.9593348,4.70405811 C15.9218446,3.85391388 15.7843399,3.26944735 15.5873638,2.76299927 C15.3841598,2.22541703 15.0715381,1.74412038 14.661955,1.3440166 C14.2617748,0.937686002 13.7772113,0.621949559 13.2457545,0.421958701 C12.7362789,0.22502023 12.1547538,0.0875417713 11.3044474,0.0500587423 C10.4477908,0.00940127112 10.1758344,0 8.00311401,0 C5.8303936,0 5.55843719,0.00940127112 4.7049557,0.0468843001 C3.85464925,0.0843673291 3.2700712,0.221967843 2.76364855,0.418784259 C2.22584167,0.621949559 1.74445317,0.93451156 1.34427306,1.3440166 C0.937864923,1.74412038 0.622190313,2.22859148 0.422039215,2.75994688 C0.225063166,3.26944735 0.0875584752,3.85073944 0.0500682941,4.70088367 C0.00940306498,5.55737679 0,5.82928132 0,8.00158722 C0,10.1738931 0.00940306498,10.4457977 0.0468932461,11.2991163 C0.0843834273,12.1492606 0.222010197,12.7337271 0.418986246,13.2401752 C0.622190313,13.7777574 0.937864923,14.2590541 1.34427306,14.6591578 C1.74445317,15.0654884 2.22901672,15.3812249 2.76047351,15.5812157 C3.2700712,15.7781542 3.8514742,15.9156327 4.70190273,15.9531157 C5.55526214,15.9907208 5.82734063,16 8.00006104,16 C10.1727814,16 10.4447379,15.9907208 11.2982194,15.9531157 C12.1485258,15.9156327 12.7331039,15.7781542 13.2395265,15.5812157 C14.3150182,15.1654839 15.1653246,14.3153396 15.5811358,13.2401752 C15.7779898,12.7306747 15.9156166,12.1492606 15.9531068,11.2991163 C15.9905969,10.4457977 16,10.1738931 16,8.00158722 C16,5.82928132 15.996825,5.55737679 15.9593348,4.70405811 Z M14.6189909,11.2840936 C14.583979,12.0788828 14.4505115,12.508069 14.339268,12.7941931 C14.0658771,13.5031698 13.5033274,14.0658557 12.7945223,14.3393128 C12.5084674,14.4505833 12.0762813,14.5840831 11.2847885,14.6189793 C10.426624,14.6572285 10.1692491,14.6666667 7.99838598,14.6666667 C5.82752286,14.6666667 5.56691995,14.6572285 4.71185939,14.6189793 C3.91726265,14.5840831 3.48818041,14.4505833 3.20212558,14.3393128 C2.84939909,14.2089178 2.52833236,14.0022726 2.26772946,13.7320443 C1.99756656,13.4681494 1.79097141,13.1502338 1.6606079,12.7974219 C1.54936435,12.5112978 1.41589692,12.0788828 1.38100914,11.2873225 C1.3427692,10.4289502 1.33333333,10.1713888 1.33333333,8 C1.33333333,5.82861118 1.3427692,5.56794516 1.38100914,4.71280168 C1.41589692,3.91801252 1.54936435,3.48882637 1.6606079,3.20270227 C1.79097141,2.84976623 1.99756656,2.52874589 2.27095749,2.26795573 C2.53466431,1.99772741 2.85250301,1.79108223 3.20535361,1.6608113 C3.49140844,1.54954081 3.92371871,1.41604106 4.71508742,1.38102068 C5.5732519,1.34289563 5.83075089,1.33333333 8.0014899,1.33333333 C10.1755811,1.33333333 10.4329559,1.34289563 11.2880165,1.38102068 C12.0826132,1.41604106 12.5116955,1.54954081 12.7977503,1.6608113 C13.1504768,1.79108223 13.4715435,1.99772741 13.7321464,2.26795573 C14.0023093,2.53185056 14.2089045,2.84976623 14.339268,3.20270227 C14.4505115,3.48882637 14.583979,3.92111719 14.6189909,4.71280168 C14.6571067,5.57117398 14.6666667,5.82861118 14.6666667,8 C14.6666667,10.1713888 14.6571067,10.4257214 14.6189909,11.2840936 Z" id="Shape"></path>
                                <path d="M8,4 C5.79170625,4 4,5.79158747 4,8 C4,10.2084125 5.79170625,12 8,12 C10.2084125,12 12,10.2084125 12,8 C12,5.79158747 10.2084125,4 8,4 Z M8,10.6666667 C6.52763655,10.6666667 5.33333333,9.47248553 5.33333333,8 C5.33333333,6.52751447 6.52763655,5.33333333 8,5.33333333 C9.47248553,5.33333333 10.6666667,6.52751447 10.6666667,8 C10.6666667,9.47248553 9.47248553,10.6666667 8,10.6666667 L8,10.6666667 Z" id="Shape"></path>
                                <path d="M13.3333333,3.66666667 C13.3333333,4.21889977 12.8855949,4.66666667 12.3332697,4.66666667 C11.7810717,4.66666667 11.3333333,4.21889977 11.3333333,3.66666667 C11.3333333,3.11430633 11.7810717,2.66666667 12.3332697,2.66666667 C12.8855949,2.66666667 13.3333333,3.11430633 13.3333333,3.66666667 L13.3333333,3.66666667 Z" id="Path"></path>
                            </g>
                        </g>
                    </g>
                </g>
            </g>
        </g>
    </g>
</svg>