<?xml version="1.0" encoding="UTF-8"?>
<svg width="32px" height="32px" viewBox="0 0 32 32" version="1.1" xmlns="http://www.w3.org/2000/svg" xmlns:xlink="http://www.w3.org/1999/xlink">
    <title>TT@1x</title>
    <g id="1.-Design" stroke="none" stroke-width="1" fill="none" fill-rule="evenodd">
        <g id="HP2" transform="translate(-1584.000000, -36.000000)">
            <g id="HEADER" transform="translate(0.000000, -36.000000)">
                <g id="Social" transform="translate(1504.000000, 72.000000)">
                    <g id="TT" transform="translate(80.000000, 0.000000)">
                        <rect id="Rectangle" stroke="#E3000F" stroke-width="2" x="1" y="1" width="30" height="30"></rect>
                        <g id="Group" transform="translate(9.000000, 8.000000)" fill="#E3000F" fill-rule="nonzero">
                            <g id="Path">
                                <path d="M13.9924821,4.00618141 C13.0816717,4.00618141 12.2413073,3.70321394 11.5664598,3.19211283 C10.7924891,2.6062088 10.2364023,1.74675769 10.0400263,0.756166742 C9.99139987,0.511414096 9.96521641,0.258836877 9.96272274,0 L7.36089711,0 L7.36089711,7.1385145 L7.35778003,11.0486102 C7.35778003,12.0939731 6.67981541,12.9803408 5.74001617,13.2920718 C5.46727178,13.3825238 5.17270783,13.4254025 4.86598729,13.4085014 C4.4744822,13.3869056 4.10760203,13.268285 3.78872487,13.0767395 C3.11013683,12.6692357 2.65005601,11.9299701 2.63758769,11.0842902 C2.61795009,9.76256333 3.68212078,8.68496313 4.99752801,8.68496313 C5.25718067,8.68496313 5.50654697,8.7275288 5.74001617,8.80483559 L5.74001617,6.85370004 L5.74001617,6.15230531 C5.49376694,6.11568631 5.24315381,6.09659435 4.98973531,6.09659435 C3.54995664,6.09659435 2.20337862,6.69752157 1.2408247,7.7801295 C0.513298525,8.59826686 0.0769075009,9.6420649 0.00957860004,10.7365662 C-0.0786347285,12.1744097 0.445346209,13.5412062 1.46151388,14.5496371 C1.61082195,14.6976781 1.76761101,14.8350776 1.93156935,14.9618356 C2.80279286,15.6350619 3.86789867,16 4.98973531,16 C5.24315381,16 5.49376694,15.981221 5.74001617,15.944602 C6.78797804,15.7887365 7.75489587,15.3070558 8.51795674,14.5496371 C9.45557403,13.6191389 9.97363252,12.3837953 9.97924326,11.0689541 L9.96583982,5.22994464 C10.4131406,5.57641674 10.9022103,5.86310909 11.4271263,6.08563995 C12.2434893,6.43148608 13.109102,6.60675652 14,6.60644354 L14,4.70945404 L14,4.00555545 C14.0005865,4.00618141 13.9931056,4.00618141 13.9924821,4.00618141 L13.9924821,4.00618141 Z"></path>
                            </g>
                        </g>
                    </g>
                </g>
            </g>
        </g>
    </g>
</svg>